<svg width="226" height="187" viewBox="0 0 226 187" fill="none" xmlns="http://www.w3.org/2000/svg">
<path fill-rule="evenodd" clip-rule="evenodd" d="M181.069 99.6236C176.191 102.019 151.962 101.678 147.36 99.3969L181.069 99.6236ZM43.0262 99.3023C53.6895 100.531 66.1935 99.1603 77.0893 99.5662C71.8841 101.971 48.2568 101.826 43.0262 99.3023ZM166.909 47.1432C170.047 54.0578 183.949 93.6935 183.95 94.0179L166.533 93.9717L166.909 47.1432ZM61.9559 45.6784C63.0347 47.0968 69.8226 66.4072 71.0305 69.7993C72.2475 73.2177 79.6755 92.2742 79.6038 94.0416L62.1912 93.9568L61.9559 45.6784ZM42.663 93.9888C44.0898 90.5943 45.6542 85.7879 47.085 81.9128L56.3983 57.1115C57.281 54.8164 60.0422 46.5794 60.9518 45.3161L60.5195 89.0322C60.4815 94.3595 61.049 94.065 58.7799 94.1246L42.663 93.9888ZM147.25 94.0946C147.35 92.3711 163.373 49.7308 165.327 44.9709L164.852 88.1559C164.827 94.0285 165.425 94.0501 163.153 94.1117L147.25 94.0946ZM112.194 27.6311C113.787 26.9084 115.481 28.5389 115.854 29.7262C116.465 31.6771 115.383 33.7656 113.961 34.1711C111.153 34.972 107.156 29.9163 112.194 27.6311ZM121.111 36.3343C124.946 34.4661 134.902 37.8096 138.994 38.9128C147.203 41.1259 154.467 42.1485 162.978 43.1978C158.264 56.8083 152.818 70.1669 147.922 83.7428C143.441 96.1697 141.361 95.4129 146.697 103.991C153.13 114.334 177.005 115.177 184.522 103.821C186.228 101.244 188.698 97.7378 187.162 93.6832C180.899 77.1531 174.696 59.5165 168.354 43.4753C169.023 42.5443 170.073 42.3507 170.951 41.1406C173.099 38.1814 171.121 31.9178 165.903 36.0521C157.786 42.4837 131.8 27.9362 121.271 26.7054C119.804 22.6973 119.881 22.485 116.92 20.2589C116.688 17.9636 116.195 16.6512 117.277 15.014C119.171 12.1468 120.423 9.092 118.229 5.653C111.892 -4.2793 103.347 9.69572 110.222 15.3049L109.961 20.5963C107.513 21.6607 106.29 23.6186 105.301 26.7224C100.462 26.9855 84.8985 33.9522 76.3054 36.0953C72.0341 37.1606 64.1853 39.3573 60.7988 35.9518C56.8061 31.9365 52.856 37.5849 56.1399 41.5113C57.3103 42.9108 57.4304 42.3807 58.52 43.386C53.6708 58.4979 44.8918 78.7623 39.4251 94.1376C37.6281 99.1914 43.7232 107.583 50.312 110.122C53.6923 111.425 57.6701 112.007 61.5164 111.994C78.1944 111.936 85.3154 99.6497 82.8429 93.6232L71.6371 63.4635C69.1931 56.5754 66.217 49.9776 64.128 42.9724C71.8584 42.8983 81.0215 40.6587 88.2933 38.7474C91.9044 37.7985 96.0316 36.4955 99.6848 35.9413C101.258 35.7027 104.305 35.6434 105.747 36.4256L109.228 39.9711C109.517 47.4905 108.526 71.9106 108.253 81.1437L107.43 112.393C107.221 117.302 107.446 117.908 108.257 122.09C104.493 124.358 104.757 128.327 102.716 129.516C101.254 130.368 100.191 130.585 98.6694 131.628C94.6695 134.373 95.9646 134.881 90.8748 136.641C86.3416 138.208 89.8618 138.18 86.7084 138.747C84.7664 139.095 81.0996 138.298 80.7964 144.973C80.9125 145.011 143.461 145.468 145.894 145.085C145.677 140.092 143.927 138.816 139.342 138.707C136.671 135.042 136.591 137.72 133.201 135.488C131.213 134.179 130.03 132.933 127.646 131.513C123.432 129.005 123.416 129.79 122.45 127.171C121.49 124.569 120.178 123.714 118.524 122.045C118.997 119.654 119.332 120.286 119.316 117.083L118.973 101.744C118.802 83.0473 116.974 56.287 117.44 39.9711C119.485 38.3435 120.001 36.8747 121.111 36.3343Z" fill="#162F53"/>
<path fill-rule="evenodd" clip-rule="evenodd" d="M56.8899 169.189C56.864 169.104 56.8096 168.992 56.7885 168.943C53.5612 161.423 55.1111 160.467 54.1686 153.126C53.6263 148.902 51.4361 142.006 49.2112 139.462L47.7133 141.934C47.3483 146.106 45.2458 148.168 45.7885 154.51C46.172 158.989 47.9301 161.813 49.524 164.522C47.9337 163.687 41.3029 155.856 40.3646 154.125C41.0907 151.415 42.4653 148.56 43.1863 145.507C44.0537 141.834 44.065 138.687 44.7818 135.285C44.2097 131.318 43.1367 125.257 40.9499 121.776C40.5096 121.075 40.8688 121.525 40.4319 121.151C39.3985 122.461 39.1985 122.477 38.3511 124.109C37.7677 125.232 37.1926 126.101 36.6185 127.29C32.2956 136.238 34.3697 143.589 38.257 150.932C35.3945 148.161 29.2275 137.637 27.1281 132.589C29.0972 129.426 32.091 124.79 33.1092 119.833C34.0639 115.187 33.8386 107.58 31.8362 103.557C30.7335 104.044 30.7702 104.168 29.6496 105.514C24.0352 112.254 23.2372 117.819 24.9184 126.51C24.3701 126.018 24.7261 126.434 24.2548 125.76L22.2214 120.841C21.5006 119.003 20.9209 117.125 20.2792 115.144C17.9589 107.982 16.6416 96.0875 15.6368 88.2389C14.9154 82.6036 16.0191 79.9973 16.4482 74.5489C17.1989 65.0218 21.142 52.2969 24.9072 43.9193L27.517 38.939C28.9131 35.891 31.7012 31.5868 32.5223 28.8242C31.6418 29.8503 31.5543 29.6054 30.6471 31.0435C30.0576 31.9778 29.7524 32.5629 29.2733 33.4523C28.2883 35.2805 27.6746 36.6201 26.6842 38.4488C25.6507 40.3576 25.1552 41.932 24.2864 44.0382C23.3993 46.1887 22.2156 47.2551 21.5829 48.881C18.8141 55.9955 16.3267 65.1975 15.1423 73.5037C14.1546 80.4301 14.3237 96.7083 16.2048 103.181C17.4383 107.425 17.9824 111.941 19.0859 116.067C21.7914 126.185 27.7736 139.457 33.2421 147.864C34.3113 149.507 35.5182 150.455 36.7888 152.19C40.4688 157.216 39.5745 157.445 44.8583 162.914C45.6265 163.71 45.8239 164.121 46.5535 164.951C47.3834 165.895 49.5507 167.561 50.8066 168.506L58.7379 175.452C66.0755 180.468 70.5495 182.297 78.7926 185.132C79.7349 185.456 80.5192 185.699 81.587 186.002C81.8544 186.078 82.9222 186.351 82.9979 186.36C83.5531 186.428 83.3102 186.385 83.7296 186.355L84.1729 186.233C81.8896 184.756 71.4091 181.323 62.2939 175.057C60.9119 174.107 58.5149 172.701 57.6236 171.187L56.8899 169.189Z" fill="#C09949"/>
<path fill-rule="evenodd" clip-rule="evenodd" d="M185.9 120.651C184.699 121.521 185.12 120.915 184.134 123.474C182.753 127.057 181.669 130.242 181.503 134.396C181.831 138.24 181.606 140.074 182.505 143.887C184.602 152.788 186.61 153.013 184.584 155.668C182.752 158.067 179.601 161.523 177.069 163.639C178.339 160.394 180.035 157.118 180.299 152.938C180.594 148.269 178.254 143.375 178.414 141.727L177.465 140.848C177.168 140.516 177.186 140.379 176.767 139.909C175.906 140.784 175.783 141.56 174.692 144.015C170.758 152.872 172.394 157.303 171.305 159.23L171.382 159.722C172.541 162.324 170.236 167.499 169.409 169.154C169.024 169.854 168.727 170.641 168.181 171.344C165.626 174.634 153.444 181.141 149.566 182.948C147.192 184.054 144.1 185.157 141.972 186.262C144.367 187.746 160.062 180.015 163.997 177.678L169.846 173.151C173.099 169.832 176.542 167.713 181.116 163.218C185.482 158.927 185.755 157.01 187.855 154.17C191.962 148.612 197.504 142.168 200.077 134.335C200.565 132.85 201.021 131.897 201.654 130.581C208.436 116.48 205.634 120.809 209.331 105.715C211.133 98.3572 211.579 93.9997 211.205 85.9824C209.136 91.9134 209.511 102.573 207.709 109.077C206.556 113.237 202.584 125.961 200.626 128.346C201.529 122.469 203.215 120.021 201.015 113.38C200.072 110.531 196.8 104.905 194.216 103.467C192.185 107.15 191.877 115.72 192.998 120.235C194.244 125.254 195.297 126.359 197.285 129.995C197.65 130.662 197.77 130.883 198.094 131.449L198.868 132.981C197.247 136.083 195.886 138.982 194.112 141.871L189.067 149.53C189.241 147.945 190.732 145.032 191.236 142.636C191.814 139.885 192.061 136.789 191.581 133.912C190.364 126.624 186.757 123.88 185.9 120.651Z" fill="#C09949"/>
<path fill-rule="evenodd" clip-rule="evenodd" d="M187.518 156.48C193.516 158.097 201.176 156.316 205.843 153.214C208.799 151.249 210.129 149.901 212.177 147.641C213.397 146.295 216.628 142.896 216.939 140.935C207.902 140.929 205.826 139.972 198.189 144.385C195.353 146.024 194.015 147.449 192.186 149.94L187.518 156.48Z" fill="#C09949"/>
<path fill-rule="evenodd" clip-rule="evenodd" d="M9.05359 140.893C9.8662 143.177 12.3564 145.993 13.8822 147.634C20.8284 155.104 27.1829 158.115 38.1235 156.681C37.9735 155.682 34.5509 150.683 33.7656 149.662C31.931 147.275 30.2883 145.908 27.6154 144.277C20.4871 139.927 17.5923 141.036 9.05359 140.893Z" fill="#C09949"/>
<path fill-rule="evenodd" clip-rule="evenodd" d="M169.857 174.596C178.467 176.786 185.359 177.793 193.804 171.698C196.17 169.99 197.304 168.848 199.04 166.817C193.852 164.276 187.926 163.777 182.296 165.681C179.634 166.581 177.404 168.045 175.522 169.581C174.591 170.34 173.74 171.095 172.659 171.915L170.447 173.851C169.99 174.37 170.263 173.996 169.857 174.596Z" fill="#C09949"/>
<path fill-rule="evenodd" clip-rule="evenodd" d="M26.9429 166.712C29.3695 169.836 34.0291 173.647 38.998 175.239C43.5033 176.682 52.0081 176.969 56.0024 174.486C55.0667 173.222 54.2256 172.832 53.059 171.892C43.0953 163.865 39.0703 162.673 26.9429 166.712Z" fill="#C09949"/>
<path fill-rule="evenodd" clip-rule="evenodd" d="M16.7153 120.622C12.7806 116.966 7.92184 115.734 1.75085 114.833C2.8862 119.868 7.55009 125.864 10.0108 128.012C14.5108 131.94 18.3718 133.435 24.4615 134.098C23.7033 128.75 20.0628 123.733 16.7153 120.622Z" fill="#C09949"/>
<path fill-rule="evenodd" clip-rule="evenodd" d="M201.332 134.169C208.134 133.071 211.655 131.788 216.084 128.052C218.773 125.784 222.71 120.026 224.169 114.908C210.29 116.556 205.722 121.944 201.332 134.169Z" fill="#C09949"/>
<path fill-rule="evenodd" clip-rule="evenodd" d="M0 86.332C0.375128 97.5947 7.29856 108.559 16.5062 110.978C16.6086 102.302 12.5571 94.1967 6.58158 89.8646C4.55493 88.3953 2.13721 87.1307 0 86.332Z" fill="#C09949"/>
<path fill-rule="evenodd" clip-rule="evenodd" d="M209.602 110.926C213.48 110.016 218.735 105.369 220.969 102.088C224.027 97.5975 225.563 92.9813 226 86.2612C216.667 89.64 209.766 97.8312 209.602 110.926Z" fill="#C09949"/>
<path fill-rule="evenodd" clip-rule="evenodd" d="M1.85828 63.5347C1.86047 70.1789 1.96108 73.768 4.78081 78.9224C6.5162 82.0948 10.4115 86.4503 13.6859 87.5669C13.7387 81.0924 13.6962 76.9752 10.9693 72.1437C9.4242 69.4061 5.09816 64.6928 1.85828 63.5347Z" fill="#C09949"/>
<path fill-rule="evenodd" clip-rule="evenodd" d="M212.187 87.7027C214.918 86.48 217.916 83.7645 219.678 81.4935C223.088 77.0968 224.207 70.071 224.016 63.7314C221.043 64.0004 216.641 69.4813 215.031 72.0914C212.014 76.9818 212.481 81.4863 212.187 87.7027Z" fill="#C09949"/>
<path fill-rule="evenodd" clip-rule="evenodd" d="M19.373 109.663C21.4709 108.047 25.1339 103.423 26.6018 99.8108C28.5193 95.0921 28.6187 90.5716 28.3702 85.1004C26.6787 84.9754 17.9157 91.3738 18.0139 101.654C18.0294 103.267 18.4679 108.165 19.373 109.663Z" fill="#C09949"/>
<path fill-rule="evenodd" clip-rule="evenodd" d="M197.704 85.0435C197.399 97.7322 198.715 101.11 206.61 109.858C207.706 108.645 208.031 103.582 208.047 102.051C208.128 94.6498 203.562 87.514 197.704 85.0435Z" fill="#C09949"/>
<path fill-rule="evenodd" clip-rule="evenodd" d="M197.43 67.0249C198.045 72.4225 199.106 76.2197 201.567 79.8615C203.444 82.6391 207.393 86.4319 210.176 87.2245C209.791 80.1831 210.435 78.7537 206.989 73.5169C205.223 70.835 201.283 67.9447 197.43 67.0249Z" fill="#C09949"/>
<path fill-rule="evenodd" clip-rule="evenodd" d="M16.1928 87.0514C19.4219 85.665 22.9594 82.2617 24.6028 79.6023C26.8793 75.918 28.0331 72.3874 28.5603 66.9844C20.4515 69.0275 14.9345 76.1675 16.1928 87.0514Z" fill="#C09949"/>
<path fill-rule="evenodd" clip-rule="evenodd" d="M15.5462 66.6503C17.9464 62.6825 17.8804 53.4181 14.0857 47.1772L10.3215 42.3662C8.67677 51.5167 6.57003 57.1425 15.5462 66.6503Z" fill="#C09949"/>
<path fill-rule="evenodd" clip-rule="evenodd" d="M210.596 66.3528C212.953 63.6442 215.31 61.3384 216.495 56.4479C218.078 49.9191 216.423 47.8104 215.687 42.4106L212.117 46.9508C208.518 52.4098 208.478 57.3581 209.772 63.3876L210.483 66.1059C210.497 66.0523 210.55 66.2764 210.596 66.3528Z" fill="#C09949"/>
<path fill-rule="evenodd" clip-rule="evenodd" d="M208.253 66.4656C207.028 56.9339 201.988 51.4767 192.959 50.5679C194.589 58.2986 200.883 65.1015 208.253 66.4656Z" fill="#C09949"/>
<path fill-rule="evenodd" clip-rule="evenodd" d="M18.0975 66.2843C19.2568 66.2725 22.0771 64.8723 23.3607 64.1605C25.1809 63.1516 26.4378 61.9448 27.7202 60.7167C29.4886 59.0228 32.2516 53.9461 33.2409 50.6011C23.9021 51.177 18.9751 56.5503 18.0975 66.2843Z" fill="#C09949"/>
<path fill-rule="evenodd" clip-rule="evenodd" d="M22.2218 46.5399C26.5319 38.9933 27.3006 34.2639 24.1801 26.3053L22.9338 23.79C19.5793 28.2481 17.5067 35.3953 19.5837 41.5116C20.0648 42.9283 21.0546 45.654 22.2218 46.5399Z" fill="#C09949"/>
<path fill-rule="evenodd" clip-rule="evenodd" d="M204.284 46.5441C205.763 42.4171 207.699 40.6506 207.226 34.7494C206.879 30.4136 204.958 26.3978 203.065 23.8848C201.557 26.3748 199.935 31.8631 200.062 35.499C200.14 37.738 200.79 39.6587 201.586 41.4598C202.216 42.8874 203.365 45.6545 204.284 46.5441Z" fill="#C09949"/>
<path fill-rule="evenodd" clip-rule="evenodd" d="M201.982 46.8804C199.715 37.9236 192.309 35.6401 184.662 35.9779C185.756 38.5876 188.941 42.282 190.974 43.758C193.844 45.8406 198.068 47.154 201.982 46.8804Z" fill="#C09949"/>
<path fill-rule="evenodd" clip-rule="evenodd" d="M24.2466 46.9561C28.8469 46.6738 31.8352 46.129 35.0765 43.7546C36.9338 42.394 40.4819 38.3244 41.4232 35.9099C36.4764 35.7147 33.8523 35.934 30.1675 38.3349C27.954 39.777 24.7681 43.3437 24.2466 46.9561Z" fill="#C09949"/>
<path fill-rule="evenodd" clip-rule="evenodd" d="M194.903 29.1462C197.464 22.379 197.196 15.9817 192.771 10.4426C192.042 9.52976 191.66 9.29799 191.011 8.48047L190.117 11.0029C189.241 14.314 188.916 17.1359 190.043 20.4778C190.818 22.7773 193.66 28.0743 194.903 29.1462Z" fill="#C09949"/>
<path fill-rule="evenodd" clip-rule="evenodd" d="M31.4802 28.8967C36.1575 22.4704 37.8859 18.2439 35.2215 8.26953C31.4043 12.2012 28.8721 16.9339 29.6944 23.3247L31.4802 28.8967Z" fill="#C09949"/>
<path fill-rule="evenodd" clip-rule="evenodd" d="M34.2153 25.8234C35.9547 24.4968 37.6726 21.6519 38.8643 19.6951C44.6697 10.1603 49.2856 15.2559 51.6063 0C40.1299 4.18423 41.4874 13.3393 40.5732 15.7312C39.9162 17.4506 35.4043 22.0164 34.2153 25.8234Z" fill="#C09949"/>
<path fill-rule="evenodd" clip-rule="evenodd" d="M192.074 26.0228C191.661 24.2118 189.107 20.8799 187.926 19.3165C184.497 14.7761 185.614 15.6661 184.746 11.4598C183.221 4.06394 179.764 3.04094 174.704 0.0253906C174.38 2.80721 175.833 6.60195 176.951 8.64116C180.921 15.8828 182.087 11.5446 187.426 19.8311C188.236 21.0885 188.84 21.934 189.542 22.9849C190.541 24.4806 191.039 25.0127 192.074 26.0228Z" fill="#C09949"/>
<path fill-rule="evenodd" clip-rule="evenodd" d="M176.327 20.6034C182.102 31.3368 191.123 28.3419 193.93 29.6385C193.278 28.637 193.054 28.5662 192.409 27.6852C191.828 26.8915 191.328 26.2308 190.784 25.5491C189.555 24.008 188.795 23.1609 187.145 22.1066C184.53 20.4356 179.715 18.9502 176.327 20.6034Z" fill="#C09949"/>
<path fill-rule="evenodd" clip-rule="evenodd" d="M33.4153 29.3835C37.0785 29.6577 40.7083 29.0306 43.5527 27.2301C45.1387 26.2262 45.8911 25.4869 46.9811 24.3348C47.9648 23.2954 49.4623 21.6334 49.7247 20.2538C44.9026 19.9749 39.195 19.7537 35.6133 25.1535C34.9391 26.1699 33.2846 28.1611 33.4153 29.3835Z" fill="#C09949"/>
<path fill-rule="evenodd" clip-rule="evenodd" d="M193.972 29.7646C194.641 30.713 196.449 34.461 197.117 35.8155C198.168 37.9449 198.916 39.5311 200.072 41.539C202.756 46.203 208.458 62.1406 209.009 67.796C209.333 71.1213 209.927 81.3105 211.309 83.1848C213.325 79.3294 207.684 57.4687 206.235 53.215C204.574 48.3408 196.859 31.392 193.972 29.7646Z" fill="#C09949"/>
</svg>
